<?xml version="1.0" encoding="utf-8"?>
<svg height="72px" width="72px" version="1.1" id="Layer_1" viewBox="0 -0.639 38.049 50.639" enable-background="new 0 0 50 50" xmlns="http://www.w3.org/2000/svg">
  <path fill="#FFFFFF" d="M 19.025 49.681 C 29.364 49.681 37.775 41.575 37.775 31.612 C 37.775 28.309 36.839 25.075 35.042 22.219 L 20.306 0.37 C 20.016 -0.061 19.53 -0.319 19.011 -0.319 C 18.491 -0.319 18.005 -0.06 17.716 0.37 L 2.972 22.273 C 1.208 25.083 0.275 28.312 0.275 31.611 C 0.275 41.575 8.686 49.681 19.025 49.681 Z M 5.591 23.978 L 19.013 4.04 L 32.425 23.925 C 33.883 26.24 34.652 28.9 34.652 31.612 C 34.652 39.853 27.642 46.556 19.027 46.556 C 10.411 46.556 3.402 39.851 3.402 31.612 C 3.4 28.901 4.169 26.247 5.591 23.978 Z" style=""/>
</svg>